# xmcd
#
# Track frame offsets:
#	150
#	13609
#	30688
#	44129
#	64259
#	79582
#	92793
#	104790
#	118806
#	132937
#	147059
#	163723
#	177851
#	197913
#	211241
#	225114
#
# Disc length: 3159 seconds
#
# Revision: 8
# Processed by: cddbd v1.5.2PL0 Copyright (c) Steve Scherf et al.
# Submitted via: EZCDAudioConverter 2.4.0.1
#
DISCID=df0c5510
DTITLE=Daniel - Meu Reino Encantado II
DYEAR=2003
DGENRE=Sertanejo
TTITLE0=Daniel Feat. José Camillo - Encanto Da Natureza
TTITLE1=Daniel Feat. José Camillo - Mundo Velho
TTITLE2=Daniel Feat. Gino and Geno, Borghettinho - Paixão Dupla
TTITLE3=Daniel Feat. Cezár and Paulinho - Pout Pourri: Pagodes Pagode Em Brasíli
TTITLE3=a/Pagode Do Ala/Tudo Certo
TTITLE4=Daniel Feat. José Camillo - Rolinha Cabocla
TTITLE5=Daniel Feat. Matogrosso and Mathias - Versos Aos Pés Do Homem
TTITLE6=Daniel Feat. João Mulato and Douradinho - Moradia
TTITLE7=Daniel Feat. José Camillo, Rolando Boldrin - Cobra Venenosa
TTITLE8=Daniel Feat. Liu and Léo - Pra Tudo Se Dá Jeito
TTITLE9=Daniel Feat. José Camillo - Cabelo Loiro
TTITLE10=Daniel Feat. Cezár and Paulinho - Consagração
TTITLE11=Daniel Feat. Valderi and Mizael - Viúva Rica
TTITLE12=Daniel Feat. José Camillo - Travessia Do Araguaia
TTITLE13=Daniel Feat. Craveiro and Cravinho - Tudo É Beleza
TTITLE14=Daniel Feat. Zico and Zeca - Minha Vida
TTITLE15=Daniel - Minas Gerais (Solo)
EXTD=
EXTT0=
EXTT1=
EXTT2=
EXTT3=
EXTT4=
EXTT5=
EXTT6=
EXTT7=
EXTT8=
EXTT9=
EXTT10=
EXTT11=
EXTT12=
EXTT13=
EXTT14=
EXTT15=
PLAYORDER=
